<?xml version="1.0" encoding="UTF-8" standalone="no"?>
<!-- Created with Inkscape (http://www.inkscape.org/) -->

<svg
   width="256mm"
   height="256mm"
   viewBox="0 0 256 256"
   version="1.1"
   id="svg5"
   xml:space="preserve"
   inkscape:version="1.2.1 (9c6d41e410, 2022-07-14)"
   sodipodi:docname="rabbit-home-icon.svg"
   xmlns:inkscape="http://www.inkscape.org/namespaces/inkscape"
   xmlns:sodipodi="http://sodipodi.sourceforge.net/DTD/sodipodi-0.dtd"
   xmlns:xlink="http://www.w3.org/1999/xlink"
   xmlns="http://www.w3.org/2000/svg"
   xmlns:svg="http://www.w3.org/2000/svg"
   xmlns:rdf="http://www.w3.org/1999/02/22-rdf-syntax-ns#"
   xmlns:cc="http://creativecommons.org/ns#"
   xmlns:dc="http://purl.org/dc/elements/1.1/"><title
     id="title341">Rabbit-Home Icon</title><sodipodi:namedview
     id="namedview7"
     pagecolor="#ffffff"
     bordercolor="#000000"
     borderopacity="0.25"
     inkscape:showpageshadow="2"
     inkscape:pageopacity="0.0"
     inkscape:pagecheckerboard="0"
     inkscape:deskcolor="#d1d1d1"
     inkscape:document-units="mm"
     showgrid="false"
     inkscape:zoom="0.31337352"
     inkscape:cx="1480.6612"
     inkscape:cy="370.16529"
     inkscape:window-width="1920"
     inkscape:window-height="1137"
     inkscape:window-x="-8"
     inkscape:window-y="537"
     inkscape:window-maximized="1"
     inkscape:current-layer="layer1" /><defs
     id="defs2"><linearGradient
       inkscape:collect="always"
       id="linearGradient1343"><stop
         style="stop-color:#000000;stop-opacity:1;"
         offset="0"
         id="stop1339" /><stop
         style="stop-color:#000000;stop-opacity:0;"
         offset="1"
         id="stop1341" /></linearGradient><radialGradient
       inkscape:collect="always"
       xlink:href="#linearGradient1343"
       id="radialGradient1345"
       cx="86.913399"
       cy="160.06224"
       fx="86.913399"
       fy="160.06224"
       r="6.9898238"
       gradientUnits="userSpaceOnUse"
       gradientTransform="translate(19.034428,32.916972)" /><filter
       inkscape:collect="always"
       style="color-interpolation-filters:sRGB"
       id="filter1347"
       x="-0.20043663"
       y="-0.20043663"
       width="1.4008733"
       height="1.4008733"><feGaussianBlur
         inkscape:collect="always"
         stdDeviation="1.1183718"
         id="feGaussianBlur1349" /></filter><radialGradient
       inkscape:collect="always"
       xlink:href="#linearGradient1343"
       id="radialGradient1345-7"
       cx="86.913399"
       cy="160.06224"
       fx="86.913399"
       fy="160.06224"
       r="6.9898238"
       gradientUnits="userSpaceOnUse"
       gradientTransform="translate(57.968488,32.916976)" /><filter
       inkscape:collect="always"
       style="color-interpolation-filters:sRGB"
       id="filter1347-2"
       x="-0.20043663"
       y="-0.20043663"
       width="1.4008733"
       height="1.4008733"><feGaussianBlur
         inkscape:collect="always"
         stdDeviation="1.1183718"
         id="feGaussianBlur1349-8" /></filter><radialGradient
       inkscape:collect="always"
       xlink:href="#linearGradient1343"
       id="radialGradient1345-7-8"
       cx="86.913399"
       cy="160.06224"
       fx="86.913399"
       fy="160.06224"
       r="6.9898238"
       gradientUnits="userSpaceOnUse"
       gradientTransform="translate(38.50146,32.916976)" /><filter
       inkscape:collect="always"
       style="color-interpolation-filters:sRGB"
       id="filter1347-2-6"
       x="-0.20043663"
       y="-0.20043663"
       width="1.4008733"
       height="1.4008733"><feGaussianBlur
         inkscape:collect="always"
         stdDeviation="1.1183718"
         id="feGaussianBlur1349-8-5" /></filter></defs><g
     inkscape:label="Calque 1"
     inkscape:groupmode="layer"
     id="layer1"><g
       id="g742"
       inkscape:label="logo"
       transform="translate(3.1750002,2.6458334)"><path
         style="font-variation-settings:'wght' 400;fill:#10aaea;fill-opacity:1;stroke-width:0.264965"
         d="m 33.451271,236.46209 177.945019,0.76037 V 112.17128 h 36.37988 L 125.38951,11.011653 3.0028924,112.17128 H 33.451271 Z"
         id="path1048"
         sodipodi:nodetypes="cccccccc" /><path
         style="font-variation-settings:'wght' 400;fill:#ffffff;fill-opacity:1;stroke-width:0.215"
         d="m 94.945697,124.19326 c 0,0 1.548423,-37.568106 3.258381,-56.284653 0.356891,-3.906392 0.824687,-9.069846 1.525285,-11.149281 0.700587,-2.079435 2.331057,-4.447208 3.591497,-5.463406 0.68059,-0.548709 1.79371,-0.709929 2.93258,-0.18931 1.13887,0.520618 2.86354,3.193731 3.82014,5.430247 1.5343,3.587146 1.5037,7.480032 1.77976,11.37175 0.95239,13.426454 -0.13032,39.967153 -0.13032,39.967153 0,0 4.80776,-2.39216 12.36611,-2.48113 7.41708,-0.0873 12.34702,2.69744 12.34702,2.69744 0,0 -0.01,-29.975224 1.14016,-44.021053 0.21897,-2.67429 0.40977,-5.585664 1.50167,-8.036691 0.82986,-1.862815 1.92259,-3.748247 3.72635,-4.699658 0.75501,-0.398238 2.06243,-0.334813 2.75306,0.166852 1.42277,1.03349 2.60971,2.946194 3.42045,5.255829 0.4905,1.397332 0.93848,4.689048 1.14016,6.924346 1.82789,20.259396 2.89209,60.956495 2.89209,60.956495 0,0 2.04488,5.03948 2.66963,7.67518 2.49274,10.51643 2.55525,21.69146 4.38422,32.34341 2.26438,13.18776 6.44385,25.80219 8.18528,39.06913 0.28025,2.13509 0.4336,4.62857 0.0977,6.76622 -0.10601,0.6747 -1.44316,2.10507 -2.63705,2.7213 -7.63393,3.94026 -17.77609,6.1735 -27.29736,7.37405 -10.04342,1.26639 -20.53557,1.20621 -30.56365,-0.17639 -6.75002,-0.93064 -19.77794,-3.51305 -26.323248,-7.45946 -1.394968,-0.84108 -2.722038,-2.01705 -3.265127,-3.55276 -0.595004,-1.68251 0.09886,-4.34482 0.43819,-6.58866 2.175067,-14.38293 6.680521,-27.79707 9.376276,-42.09156 1.787195,-9.47677 3.149348,-20.92006 4.646018,-29.29515 0.443593,-2.48226 2.224688,-7.23024 2.224688,-7.23024 z"
         id="path403"
         sodipodi:nodetypes="cszszsscscsssssscssssssssssssc" /><path
         style="font-variation-settings:'wght' 400;fill:#000000;fill-opacity:1;stroke-width:0.215"
         d="m 113.77396,137.61638 c -1.78699,-0.069 -2.47337,-3.04947 -2.51694,-4.83727 -0.0461,-1.89119 0.50944,-5.09931 2.39896,-5.1912 2.00952,-0.0977 2.70319,3.25817 2.67426,5.26986 -0.0263,1.83232 -0.72513,4.82934 -2.55628,4.75861 z"
         id="path1062"
         sodipodi:nodetypes="sssss" /><path
         style="font-variation-settings:'wght' 400;fill:#000000;fill-opacity:1;stroke-width:0.215"
         d="m 136.80099,137.61638 c -1.78699,-0.069 -2.47338,-3.04947 -2.51695,-4.83727 -0.0461,-1.8912 0.50944,-5.09932 2.39897,-5.19121 2.00952,-0.0977 2.70319,3.25818 2.67426,5.26987 -0.0264,1.83232 -0.72513,4.82934 -2.55628,4.75861 z"
         id="path1062-4"
         sodipodi:nodetypes="sssss" /><path
         style="font-variation-settings:'wght' 400;fill:#000000;fill-opacity:1;stroke-width:0.215"
         d="m 125.21821,150.50569 c -2.03978,-0.0593 -2.20233,-5.78112 -2.20233,-5.78112 0,0 -4.62402,-0.68146 -4.60129,-2.35963 0.0175,-1.28945 3.65744,-1.33714 3.65744,-1.33714 l 6.09573,0.0787 c 0,0 4.07676,0.15123 3.93274,1.37645 -0.23864,2.03016 -4.56197,2.24167 -4.56197,2.24167 0,0 -0.26074,5.84097 -2.32032,5.78107 z"
         id="path1108"
         sodipodi:nodetypes="scsccscs" /><circle
         style="font-variation-settings:'wght' 400;mix-blend-mode:normal;fill:#0008d1;fill-opacity:0.5;stroke:url(#radialGradient1345);stroke-width:0.235882;stroke-opacity:1;filter:url(#filter1347)"
         id="path1314"
         cx="105.94782"
         cy="192.9792"
         r="6.9898238" /><circle
         style="font-variation-settings:'wght' 400;fill:#0008d1;fill-opacity:0.5;stroke:url(#radialGradient1345-7);stroke-width:0.235882;stroke-opacity:1;filter:url(#filter1347-2)"
         id="path1314-0"
         cx="144.88188"
         cy="192.9792"
         r="6.9898238" /><circle
         style="font-variation-settings:'wght' 400;fill:#0008d1;fill-opacity:0.5;stroke:url(#radialGradient1345-7-8);stroke-width:0.235882;stroke-opacity:1;filter:url(#filter1347-2-6)"
         id="path1314-0-3"
         cx="125.41486"
         cy="192.9792"
         r="6.9898238" /></g><text
       xml:space="preserve"
       style="font-style:normal;font-variant:normal;font-weight:normal;font-stretch:normal;font-size:112.418px;font-family:HandelGothic;-inkscape-font-specification:'HandelGothic, Normal';font-variant-ligatures:normal;font-variant-caps:normal;font-variant-numeric:normal;font-variant-east-asian:normal;display:none;fill:#10aaea;fill-opacity:1;stroke-width:0.342563"
       x="288.31314"
       y="-222.278"
       id="text307-0"
       inkscape:label="text_raw"><tspan
         sodipodi:role="line"
         style="font-style:normal;font-variant:normal;font-weight:normal;font-stretch:normal;font-size:70.5556px;font-family:HandelGothic;-inkscape-font-specification:'HandelGothic, Normal';font-variant-ligatures:normal;font-variant-caps:normal;font-variant-numeric:normal;font-variant-east-asian:normal;fill:#10aaea;fill-opacity:1;stroke-width:0.342563"
         x="0"
         y="0"
         id="tspan650"><tspan
   style="font-style:normal;font-variant:normal;font-weight:normal;font-stretch:normal;font-size:52.9167px;font-family:HandelGothic;-inkscape-font-specification:'HandelGothic, Normal';font-variant-ligatures:normal;font-variant-caps:normal;font-variant-numeric:normal;font-variant-east-asian:normal"
   id="tspan642">R</tspan>a<tspan
   style="font-style:normal;font-variant:normal;font-weight:normal;font-stretch:normal;font-size:52.9167px;font-family:HandelGothic;-inkscape-font-specification:'HandelGothic, Normal';font-variant-ligatures:normal;font-variant-caps:normal;font-variant-numeric:normal;font-variant-east-asian:normal"
   id="tspan644">BB</tspan>it</tspan><tspan
         sodipodi:role="line"
         style="font-style:normal;font-variant:normal;font-weight:normal;font-stretch:normal;font-size:70.5556px;font-family:HandelGothic;-inkscape-font-specification:'HandelGothic, Normal';font-variant-ligatures:normal;font-variant-caps:normal;font-variant-numeric:normal;font-variant-east-asian:normal;fill:#10aaea;fill-opacity:1;stroke-width:0.342563"
         x="0"
         y="0"
         id="tspan504-6"><tspan
   style="font-style:normal;font-variant:normal;font-weight:normal;font-stretch:normal;font-size:52.9167px;font-family:HandelGothic;-inkscape-font-specification:'HandelGothic, Normal';font-variant-ligatures:normal;font-variant-caps:normal;font-variant-numeric:normal;font-variant-east-asian:normal"
   id="tspan646">H</tspan>o<tspan
   style="font-style:normal;font-variant:normal;font-weight:normal;font-stretch:normal;font-size:52.9167px;font-family:HandelGothic;-inkscape-font-specification:'HandelGothic, Normal';font-variant-ligatures:normal;font-variant-caps:normal;font-variant-numeric:normal;font-variant-east-asian:normal"
   id="tspan648">M</tspan>e</tspan></text></g><metadata
     id="metadata336"><rdf:RDF><cc:Work
         rdf:about=""><cc:license
           rdf:resource="http://creativecommons.org/licenses/by-nc-sa/4.0/" /><dc:date>2024-12-07</dc:date><dc:creator><cc:Agent><dc:title>https://github.com/ORelio/</dc:title></cc:Agent></dc:creator><dc:rights><cc:Agent><dc:title>CC BY-NC-SA v4.0</dc:title></cc:Agent></dc:rights><dc:title>Rabbit Home Icon</dc:title></cc:Work><cc:License
         rdf:about="http://creativecommons.org/licenses/by-nc-sa/4.0/"><cc:permits
           rdf:resource="http://creativecommons.org/ns#Reproduction" /><cc:permits
           rdf:resource="http://creativecommons.org/ns#Distribution" /><cc:requires
           rdf:resource="http://creativecommons.org/ns#Notice" /><cc:requires
           rdf:resource="http://creativecommons.org/ns#Attribution" /><cc:prohibits
           rdf:resource="http://creativecommons.org/ns#CommercialUse" /><cc:permits
           rdf:resource="http://creativecommons.org/ns#DerivativeWorks" /><cc:requires
           rdf:resource="http://creativecommons.org/ns#ShareAlike" /></cc:License></rdf:RDF></metadata></svg>
