<?xml version="1.0" encoding="UTF-8" standalone="no"?>
<!-- Created with Inkscape (http://www.inkscape.org/) -->

<svg
   width="800mm"
   height="250mm"
   viewBox="0 0 800 250"
   version="1.1"
   id="svg5"
   xml:space="preserve"
   inkscape:version="1.2.1 (9c6d41e410, 2022-07-14)"
   sodipodi:docname="rabbit-home-logo.svg"
   xmlns:inkscape="http://www.inkscape.org/namespaces/inkscape"
   xmlns:sodipodi="http://sodipodi.sourceforge.net/DTD/sodipodi-0.dtd"
   xmlns:xlink="http://www.w3.org/1999/xlink"
   xmlns="http://www.w3.org/2000/svg"
   xmlns:svg="http://www.w3.org/2000/svg"
   xmlns:rdf="http://www.w3.org/1999/02/22-rdf-syntax-ns#"
   xmlns:cc="http://creativecommons.org/ns#"
   xmlns:dc="http://purl.org/dc/elements/1.1/"><sodipodi:namedview
     id="namedview7"
     pagecolor="#ffffff"
     bordercolor="#000000"
     borderopacity="0.25"
     inkscape:showpageshadow="2"
     inkscape:pageopacity="0.0"
     inkscape:pagecheckerboard="0"
     inkscape:deskcolor="#d1d1d1"
     inkscape:document-units="mm"
     showgrid="false"
     inkscape:zoom="0.31337352"
     inkscape:cx="1659.3616"
     inkscape:cy="370.16529"
     inkscape:window-width="1920"
     inkscape:window-height="1137"
     inkscape:window-x="-8"
     inkscape:window-y="537"
     inkscape:window-maximized="1"
     inkscape:current-layer="layer1" /><defs
     id="defs2"><linearGradient
       inkscape:collect="always"
       id="linearGradient1343"><stop
         style="stop-color:#000000;stop-opacity:1;"
         offset="0"
         id="stop1339" /><stop
         style="stop-color:#000000;stop-opacity:0;"
         offset="1"
         id="stop1341" /></linearGradient><radialGradient
       inkscape:collect="always"
       xlink:href="#linearGradient1343"
       id="radialGradient1345"
       cx="86.913399"
       cy="160.06224"
       fx="86.913399"
       fy="160.06224"
       r="6.9898238"
       gradientUnits="userSpaceOnUse"
       gradientTransform="translate(19.034428,32.916972)" /><filter
       inkscape:collect="always"
       style="color-interpolation-filters:sRGB"
       id="filter1347"
       x="-0.20043663"
       y="-0.20043663"
       width="1.4008733"
       height="1.4008733"><feGaussianBlur
         inkscape:collect="always"
         stdDeviation="1.1183718"
         id="feGaussianBlur1349" /></filter><radialGradient
       inkscape:collect="always"
       xlink:href="#linearGradient1343"
       id="radialGradient1345-7"
       cx="86.913399"
       cy="160.06224"
       fx="86.913399"
       fy="160.06224"
       r="6.9898238"
       gradientUnits="userSpaceOnUse"
       gradientTransform="translate(57.968488,32.916976)" /><filter
       inkscape:collect="always"
       style="color-interpolation-filters:sRGB"
       id="filter1347-2"
       x="-0.20043663"
       y="-0.20043663"
       width="1.4008733"
       height="1.4008733"><feGaussianBlur
         inkscape:collect="always"
         stdDeviation="1.1183718"
         id="feGaussianBlur1349-8" /></filter><radialGradient
       inkscape:collect="always"
       xlink:href="#linearGradient1343"
       id="radialGradient1345-7-8"
       cx="86.913399"
       cy="160.06224"
       fx="86.913399"
       fy="160.06224"
       r="6.9898238"
       gradientUnits="userSpaceOnUse"
       gradientTransform="translate(38.50146,32.916976)" /><filter
       inkscape:collect="always"
       style="color-interpolation-filters:sRGB"
       id="filter1347-2-6"
       x="-0.20043663"
       y="-0.20043663"
       width="1.4008733"
       height="1.4008733"><feGaussianBlur
         inkscape:collect="always"
         stdDeviation="1.1183718"
         id="feGaussianBlur1349-8-5" /></filter></defs><g
     inkscape:label="Calque 1"
     inkscape:groupmode="layer"
     id="layer1"><g
       id="g742"
       inkscape:label="logo"
       transform="translate(11.641668,0.52916667)"><path
         style="font-variation-settings:'wght' 400;fill:#10aaea;fill-opacity:1;stroke-width:0.264965"
         d="m 33.451271,236.46209 177.945019,0.76037 V 112.17128 h 36.37988 L 125.38951,11.011653 3.0028924,112.17128 H 33.451271 Z"
         id="path1048"
         sodipodi:nodetypes="cccccccc" /><path
         style="font-variation-settings:'wght' 400;fill:#ffffff;fill-opacity:1;stroke-width:0.215"
         d="m 94.945697,124.19326 c 0,0 1.548423,-37.568106 3.258381,-56.284653 0.356891,-3.906392 0.824687,-9.069846 1.525285,-11.149281 0.700587,-2.079435 2.331057,-4.447208 3.591497,-5.463406 0.68059,-0.548709 1.79371,-0.709929 2.93258,-0.18931 1.13887,0.520618 2.86354,3.193731 3.82014,5.430247 1.5343,3.587146 1.5037,7.480032 1.77976,11.37175 0.95239,13.426454 -0.13032,39.967153 -0.13032,39.967153 0,0 4.80776,-2.39216 12.36611,-2.48113 7.41708,-0.0873 12.34702,2.69744 12.34702,2.69744 0,0 -0.01,-29.975224 1.14016,-44.021053 0.21897,-2.67429 0.40977,-5.585664 1.50167,-8.036691 0.82986,-1.862815 1.92259,-3.748247 3.72635,-4.699658 0.75501,-0.398238 2.06243,-0.334813 2.75306,0.166852 1.42277,1.03349 2.60971,2.946194 3.42045,5.255829 0.4905,1.397332 0.93848,4.689048 1.14016,6.924346 1.82789,20.259396 2.89209,60.956495 2.89209,60.956495 0,0 2.04488,5.03948 2.66963,7.67518 2.49274,10.51643 2.55525,21.69146 4.38422,32.34341 2.26438,13.18776 6.44385,25.80219 8.18528,39.06913 0.28025,2.13509 0.4336,4.62857 0.0977,6.76622 -0.10601,0.6747 -1.44316,2.10507 -2.63705,2.7213 -7.63393,3.94026 -17.77609,6.1735 -27.29736,7.37405 -10.04342,1.26639 -20.53557,1.20621 -30.56365,-0.17639 -6.75002,-0.93064 -19.77794,-3.51305 -26.323248,-7.45946 -1.394968,-0.84108 -2.722038,-2.01705 -3.265127,-3.55276 -0.595004,-1.68251 0.09886,-4.34482 0.43819,-6.58866 2.175067,-14.38293 6.680521,-27.79707 9.376276,-42.09156 1.787195,-9.47677 3.149348,-20.92006 4.646018,-29.29515 0.443593,-2.48226 2.224688,-7.23024 2.224688,-7.23024 z"
         id="path403"
         sodipodi:nodetypes="cszszsscscsssssscssssssssssssc" /><path
         style="font-variation-settings:'wght' 400;fill:#000000;fill-opacity:1;stroke-width:0.215"
         d="m 113.77396,137.61638 c -1.78699,-0.069 -2.47337,-3.04947 -2.51694,-4.83727 -0.0461,-1.89119 0.50944,-5.09931 2.39896,-5.1912 2.00952,-0.0977 2.70319,3.25817 2.67426,5.26986 -0.0263,1.83232 -0.72513,4.82934 -2.55628,4.75861 z"
         id="path1062"
         sodipodi:nodetypes="sssss" /><path
         style="font-variation-settings:'wght' 400;fill:#000000;fill-opacity:1;stroke-width:0.215"
         d="m 136.80099,137.61638 c -1.78699,-0.069 -2.47338,-3.04947 -2.51695,-4.83727 -0.0461,-1.8912 0.50944,-5.09932 2.39897,-5.19121 2.00952,-0.0977 2.70319,3.25818 2.67426,5.26987 -0.0264,1.83232 -0.72513,4.82934 -2.55628,4.75861 z"
         id="path1062-4"
         sodipodi:nodetypes="sssss" /><path
         style="font-variation-settings:'wght' 400;fill:#000000;fill-opacity:1;stroke-width:0.215"
         d="m 125.21821,150.50569 c -2.03978,-0.0593 -2.20233,-5.78112 -2.20233,-5.78112 0,0 -4.62402,-0.68146 -4.60129,-2.35963 0.0175,-1.28945 3.65744,-1.33714 3.65744,-1.33714 l 6.09573,0.0787 c 0,0 4.07676,0.15123 3.93274,1.37645 -0.23864,2.03016 -4.56197,2.24167 -4.56197,2.24167 0,0 -0.26074,5.84097 -2.32032,5.78107 z"
         id="path1108"
         sodipodi:nodetypes="scsccscs" /><circle
         style="font-variation-settings:'wght' 400;mix-blend-mode:normal;fill:#0008d1;fill-opacity:0.5;stroke:url(#radialGradient1345);stroke-width:0.235882;stroke-opacity:1;filter:url(#filter1347)"
         id="path1314"
         cx="105.94782"
         cy="192.9792"
         r="6.9898238" /><circle
         style="font-variation-settings:'wght' 400;fill:#0008d1;fill-opacity:0.5;stroke:url(#radialGradient1345-7);stroke-width:0.235882;stroke-opacity:1;filter:url(#filter1347-2)"
         id="path1314-0"
         cx="144.88188"
         cy="192.9792"
         r="6.9898238" /><circle
         style="font-variation-settings:'wght' 400;fill:#0008d1;fill-opacity:0.5;stroke:url(#radialGradient1345-7-8);stroke-width:0.235882;stroke-opacity:1;filter:url(#filter1347-2-6)"
         id="path1314-0-3"
         cx="125.41486"
         cy="192.9792"
         r="6.9898238" /></g><text
       xml:space="preserve"
       style="font-style:normal;font-variant:normal;font-weight:normal;font-stretch:normal;font-size:112.418px;font-family:HandelGothic;-inkscape-font-specification:'HandelGothic, Normal';font-variant-ligatures:normal;font-variant-caps:normal;font-variant-numeric:normal;font-variant-east-asian:normal;display:none;fill:#10aaea;fill-opacity:1;stroke-width:0.342563"
       x="288.31314"
       y="-222.278"
       id="text307-0"
       inkscape:label="text_raw"><tspan
         sodipodi:role="line"
         style="font-style:normal;font-variant:normal;font-weight:normal;font-stretch:normal;font-size:70.5556px;font-family:HandelGothic;-inkscape-font-specification:'HandelGothic, Normal';font-variant-ligatures:normal;font-variant-caps:normal;font-variant-numeric:normal;font-variant-east-asian:normal;fill:#10aaea;fill-opacity:1;stroke-width:0.342563"
         x="0"
         y="0"
         id="tspan650"><tspan
   style="font-style:normal;font-variant:normal;font-weight:normal;font-stretch:normal;font-size:52.9167px;font-family:HandelGothic;-inkscape-font-specification:'HandelGothic, Normal';font-variant-ligatures:normal;font-variant-caps:normal;font-variant-numeric:normal;font-variant-east-asian:normal"
   id="tspan642">R</tspan>a<tspan
   style="font-style:normal;font-variant:normal;font-weight:normal;font-stretch:normal;font-size:52.9167px;font-family:HandelGothic;-inkscape-font-specification:'HandelGothic, Normal';font-variant-ligatures:normal;font-variant-caps:normal;font-variant-numeric:normal;font-variant-east-asian:normal"
   id="tspan644">BB</tspan>it</tspan><tspan
         sodipodi:role="line"
         style="font-style:normal;font-variant:normal;font-weight:normal;font-stretch:normal;font-size:70.5556px;font-family:HandelGothic;-inkscape-font-specification:'HandelGothic, Normal';font-variant-ligatures:normal;font-variant-caps:normal;font-variant-numeric:normal;font-variant-east-asian:normal;fill:#10aaea;fill-opacity:1;stroke-width:0.342563"
         x="0"
         y="0"
         id="tspan504-6"><tspan
   style="font-style:normal;font-variant:normal;font-weight:normal;font-stretch:normal;font-size:52.9167px;font-family:HandelGothic;-inkscape-font-specification:'HandelGothic, Normal';font-variant-ligatures:normal;font-variant-caps:normal;font-variant-numeric:normal;font-variant-east-asian:normal"
   id="tspan646">H</tspan>o<tspan
   style="font-style:normal;font-variant:normal;font-weight:normal;font-stretch:normal;font-size:52.9167px;font-family:HandelGothic;-inkscape-font-specification:'HandelGothic, Normal';font-variant-ligatures:normal;font-variant-caps:normal;font-variant-numeric:normal;font-variant-east-asian:normal"
   id="tspan648">M</tspan>e</tspan></text><g
       aria-label="RaBBit HoMe"
       id="text307-0-1"
       style="font-size:112.418px;font-family:HandelGothic;-inkscape-font-specification:'HandelGothic, Normal';fill:#10aaea;stroke-width:0.342563"
       inkscape:label="text"
       transform="matrix(2.1794011,0,0,2.1794011,-338.08301,-68.564675)"><path
         d="m 302.40154,84.129126 v 12.162988 l -8.89222,0 V 60.996676 h 17.25084 c 2.68111,0 4.8507,0.15875 6.50875,0.476251 1.65806,0.3175 3.40431,1.11125 5.23876,2.381251 1.83444,1.234723 2.75166,3.563058 2.75166,6.985004 0,5.326948 -2.24014,8.766533 -6.72042,10.318756 2.29306,0.776112 3.93348,1.887363 4.92126,3.333753 0.98777,1.411111 1.48166,3.563057 1.48166,6.455837 0,1.446389 0.0353,2.416529 0.10584,2.910418 0.10583,0.493889 0.35278,1.305279 0.74083,2.434168 l -9.63869,0 c -0.17797,-0.641001 -0.29662,-1.105726 -0.35594,-1.394176 -0.0297,-0.28845 -0.16314,-1.618527 -0.40044,-3.99023 -0.20763,-2.371702 -0.88985,-4.08638 -2.04667,-5.144031 -1.12714,-1.089701 -3.08483,-1.634551 -5.87304,-1.634551 z m 0.10328,-8.388185 h 8.57172 c 1.55066,0 2.67058,-0.301517 3.35976,-0.904552 0.68919,-0.603036 1.03378,-1.608095 1.03378,-3.015178 0,-1.320935 -0.34459,-2.254204 -1.03378,-2.799808 -0.66046,-0.574319 -1.78038,-0.861478 -3.35976,-0.861478 h -8.57172 z"
         style="font-size:52.9167px"
         id="path712"
         sodipodi:nodetypes="ccccsscsccsccccccsccssscscc" /><path
         d="M 357.46147,74.821803 V 74.24274 q 0,-3.257229 -1.55222,-4.487737 -1.55222,-1.23051 -5.64445,-1.23051 h -15.94557 v -7.527817 h 15.94557 q 6.42056,0 8.96056,0.723829 2.54,0.723828 4.37445,2.967696 1.905,2.243869 2.61056,4.849653 0.70555,2.5334 0.70555,6.876372 V 96.24713 h -19.89668 q -5.78556,0 -7.69056,-0.289531 -1.83444,-0.289532 -4.65667,-2.388635 -2.82222,-2.099103 -2.82222,-7.817349 0,-3.691526 1.69333,-6.442075 1.69334,-2.750549 4.37445,-3.619143 2.68111,-0.868594 7.97278,-0.868594 z m 0,7.527817 h -10.93612 -1.55222 q -3.52778,0 -3.52778,3.25723 0,1.664804 1.12889,2.388634 1.19944,0.723829 3.95111,0.723829 h 10.93612 z"
         style="font-size:70.5556px;stroke-width:0.34697"
         id="path714" /><path
         d="M 372.97721,96.292114 V 60.996676 h 19.9496 c 3.24556,0 5.57389,0.388056 6.985,1.164168 1.41111,0.776111 2.50473,1.905001 3.28084,3.386668 0.81139,1.44639 1.21708,3.033891 1.21708,4.762503 0,1.799168 -0.47625,3.492502 -1.42875,5.080003 -0.9525,1.552223 -2.18722,2.645835 -3.70417,3.280836 3.42195,1.587501 5.13292,4.392086 5.13292,8.413755 0,2.046112 -0.44097,3.810002 -1.32291,5.29167 -0.88195,1.446389 -2.09903,2.469445 -3.65126,3.069168 -1.51694,0.564445 -3.82763,0.846667 -6.93208,0.846667 z m 9.31635,-21.743166 h 7.85483 c 0.81397,0 1.41088,-0.0407 1.79073,-0.122096 0.37986,-0.0814 0.86824,-0.352721 1.46515,-0.813972 0.59691,-0.46125 0.89537,-1.261656 0.89537,-2.401216 0,-1.980664 -1.34305,-2.970996 -4.02916,-2.970996 h -7.97692 z m -0.0102,14.507738 h 7.87615 c 0.84339,0 1.45552,-0.04081 1.8364,-0.122427 0.38089,-0.08162 0.8706,-0.353679 1.46913,-0.816182 0.59853,-0.462502 0.8978,-1.265081 0.8978,-2.407735 0,-1.986041 -1.3603,-2.979062 -4.08091,-2.979062 h -7.99857 z"
         style="font-size:52.9167px"
         id="path716"
         sodipodi:nodetypes="ccsscsccsccsccssssscccssssscc" /><path
         d="M 410.47103,96.292114 V 60.996676 h 19.9496 c 3.24556,0 5.57389,0.388056 6.985,1.164168 1.41111,0.776111 2.50473,1.905001 3.28084,3.386668 0.81139,1.44639 1.21708,3.033891 1.21708,4.762503 0,1.799168 -0.47625,3.492502 -1.42875,5.080003 -0.9525,1.552223 -2.18722,2.645835 -3.70417,3.280836 3.42195,1.587501 5.13292,4.392086 5.13292,8.413755 0,2.046112 -0.44097,3.810002 -1.32291,5.29167 -0.88195,1.446389 -2.09903,2.469445 -3.65126,3.069168 -1.51695,0.564445 -3.82764,0.846667 -6.93208,0.846667 z m 9.16267,-21.662423 h 8.05591 c 0.83481,0 1.447,-0.04174 1.83657,-0.125221 0.38958,-0.08348 0.89047,-0.36175 1.50266,-0.834809 0.61219,-0.473058 0.91829,-1.293953 0.91829,-2.462686 0,-2.031367 -1.37743,-3.04705 -4.1323,-3.04705 h -8.18113 z m 0.0782,14.461134 h 7.96117 c 0.85249,0 1.47123,-0.04125 1.85623,-0.123749 0.38499,-0.0825 0.87999,-0.357496 1.48498,-0.824991 0.605,-0.467495 0.90749,-1.278737 0.90749,-2.433725 0,-2.007479 -1.37498,-3.011219 -4.12495,-3.011219 h -8.08492 z"
         style="font-size:52.9167px"
         id="path718"
         sodipodi:nodetypes="ccsscsccsccsccssssscccssssscc" /><path
         d="m 456.97739,60.996676 h 7.42506 9.01255 v 7.368695 h -8.13725 v 20.998385 h 8.13725 v 6.881388 h -8.13725 -9.13983 -8.17308 v -6.881388 h 8.17308 V 68.365371 h -8.17308 v -7.368695 z"
         style="font-size:70.5556px;stroke-width:0.3481"
         id="path720"
         sodipodi:nodetypes="ccccccccccccccccc" /><path
         d="m 491.78824,60.996676 h 15.59278 v 7.527817 H 497.00108 V 81.33626 c 0,3.04008 0.30574,5.042674 0.91722,6.007778 0.65852,0.91685 2.02259,1.375275 4.09222,1.375275 h 5.3705 v 7.527817 h -8.47494 c -4.1863,0 -7.12612,-0.989232 -8.81945,-2.967696 -1.69333,-1.978466 -2.54,-5.404588 -2.54,-10.278368 V 68.524493 h -8.07034 v -7.527817 z"
         style="font-size:70.5556px;stroke-width:0.346971"
         id="path722"
         sodipodi:nodetypes="ccccscsccssscccc" /><path
         d="m 325.00555,104.5168 v 35.29543 h -8.64228 v -13.54157 h -13.9892 v 13.54157 h -8.64228 V 104.5168 h 8.66905 v 13.41927 H 316.3365 V 104.5168 Z"
         style="font-size:52.9167px"
         id="path724"
         sodipodi:nodetypes="ccccccccccccc" /><path
         d="m 349.23931,104.49034 c 5.45745,0 9.70711,1.57574 12.74897,4.72722 3.04185,3.15149 4.56278,7.59649 4.56278,13.33501 0,5.31519 -1.56566,9.525 -4.69698,12.62945 -3.13133,3.10445 -7.42571,4.65667 -12.88316,4.65667 -5.27852,0 -9.43871,-1.55222 -12.48056,-4.65667 -2.99713,-3.15148 -4.49569,-7.50241 -4.49569,-13.05278 0,-5.40927 1.5433,-9.68964 4.62989,-12.84112 3.13132,-3.19852 7.33624,-4.79778 12.61475,-4.79778 z m -0.12521,7.82464 c -4.99578,0 -7.49368,3.29431 -7.49368,9.88292 0,6.5441 2.58257,9.81615 7.7477,9.81615 5.03813,0 7.55719,-3.27205 7.55719,-9.81615 0,-6.58861 -2.60374,-9.88292 -7.81121,-9.88292 z"
         style="font-size:70.5556px;stroke-width:0.334068"
         id="path726"
         sodipodi:nodetypes="ssssscscssssss" /><path
         d="m 382.33899,104.5168 6.47098,7.00631 6.47098,-7.00631 h 8.89118 v 35.29543 h -8.89118 V 118.4184 l -6.66761,6.34 -6.6676,-6.34 v 21.39383 h -8.89117 V 104.5168 Z"
         style="font-size:52.9167px;stroke-width:0.297718"
         id="path728"
         sodipodi:nodetypes="ccccccccccccc" /><path
         d="m 441.08458,118.34043 v 7.57533 H 421.1879 c 0,2.33087 0.65852,3.98191 1.97556,4.9531 1.31704,0.97119 3.43371,1.45679 6.35,1.45679 h 11.57112 v 7.57532 h -12.55889 c -2.72815,0 -4.96242,-0.2428 -6.70279,-0.72839 -1.69333,-0.4856 -4.0676,-1.5301 -6.84389,-4.07902 -2.67366,-2.45469 -4.23334,-6.70126 -4.23334,-13.25683 0,-3.20494 0.58796,-6.11852 1.76389,-8.74075 1.17593,-2.62223 2.89278,-4.7103 5.15056,-6.26422 2.30482,-1.60247 5.69149,-2.40371 10.16001,-2.40371 h 13.26445 v 7.57533 h -12.55889 c -2.58704,0 -4.39797,0.46132 -5.43279,1.38395 -1.03481,0.87407 -1.66981,2.52511 -1.905,4.9531 z"
         style="font-size:70.5556px;stroke-width:0.348064"
         id="path730"
         sodipodi:nodetypes="cccssccscssscsccsccc" /><path
         style="font-variation-settings:'wght' 400;fill:#10aaea;fill-opacity:1;stroke-width:0.0501572"
         d="m 453.90123,119.51294 c 0,0 0.36123,-6.64756 0.76014,-11.01393 0.0833,-0.91131 0.19239,-2.11589 0.35583,-2.601 0.16344,-0.48511 0.54381,-1.03749 0.83786,-1.27456 0.15878,-0.128 0.41845,-0.16561 0.68414,-0.0442 0.26569,0.12146 0.66803,0.74507 0.8912,1.26682 0.35793,0.83684 0.35079,1.74501 0.4152,2.65291 0.22218,3.13224 -0.0304,7.20723 -0.0304,7.20723 0,0 1.1216,-0.55806 2.88488,-0.57882 1.73033,-0.0204 2.88043,0.62928 2.88043,0.62928 0,0 -0.002,-4.87622 0.26599,-8.15296 0.0511,-0.62388 0.0956,-1.30308 0.35032,-1.87487 0.1936,-0.43458 0.44852,-0.87443 0.86932,-1.09638 0.17613,-0.0929 0.48114,-0.0781 0.64226,0.0389 0.33191,0.2411 0.60881,0.68731 0.79795,1.22613 0.11443,0.32598 0.21894,1.0939 0.26599,1.61537 0.42642,4.7263 0.67469,12.10382 0.67469,12.10382 0,0 0.47705,1.17566 0.6228,1.79054 0.58153,2.45337 0.59611,4.53122 1.02279,7.0162 0.52825,3.07657 1.50328,6.01938 1.90954,9.11441 0.0654,0.49809 0.10115,1.07979 0.0228,1.57848 -0.0247,0.1574 -0.33668,0.49109 -0.6152,0.63485 -5.41063,0.006 -13.9639,0.19437 -19.63928,-0.061 -0.32543,-0.19622 -0.63502,-0.47056 -0.76171,-0.82882 -0.13881,-0.39251 0.0231,-1.0136 0.10222,-1.53706 0.50742,-3.35538 1.5585,-6.48476 2.18739,-9.81951 0.41693,-2.21083 0.7347,-4.35126 1.08386,-6.30508 0.10349,-0.57908 0.519,-1.68674 0.519,-1.68674 z"
         id="path403-2"
         sodipodi:nodetypes="cszszsscscsssssscssssccsssscc" /><path
         style="font-variation-settings:'wght' 400;fill:#10aaea;fill-opacity:1;stroke-width:0.0358292"
         d="m 483.89162,139.73724 21.94544,0.10286 v -20.08467 h 5.97768 l -16.54937,-15.26651 -16.54936,15.26651 h 5.17561 z"
         id="path1048-4"
         sodipodi:nodetypes="cccccccc" /></g></g><metadata
     id="metadata336"><rdf:RDF><cc:Work
         rdf:about=""><cc:license
           rdf:resource="http://creativecommons.org/licenses/by-nc-sa/4.0/" /><dc:title>Rabbit Home Logo</dc:title><dc:date>2024-12-07</dc:date><dc:creator><cc:Agent><dc:title>https://github.com/ORelio/</dc:title></cc:Agent></dc:creator><dc:rights><cc:Agent><dc:title>CC BY-NC-SA v4.0</dc:title></cc:Agent></dc:rights></cc:Work><cc:License
         rdf:about="http://creativecommons.org/licenses/by-nc-sa/4.0/"><cc:permits
           rdf:resource="http://creativecommons.org/ns#Reproduction" /><cc:permits
           rdf:resource="http://creativecommons.org/ns#Distribution" /><cc:requires
           rdf:resource="http://creativecommons.org/ns#Notice" /><cc:requires
           rdf:resource="http://creativecommons.org/ns#Attribution" /><cc:prohibits
           rdf:resource="http://creativecommons.org/ns#CommercialUse" /><cc:permits
           rdf:resource="http://creativecommons.org/ns#DerivativeWorks" /><cc:requires
           rdf:resource="http://creativecommons.org/ns#ShareAlike" /></cc:License></rdf:RDF></metadata></svg>
